<?xml version="1.0" encoding="UTF-8" standalone="no"?>
<!-- Created with Inkscape (http://www.inkscape.org/) -->
<svg
   xmlns:dc="http://purl.org/dc/elements/1.1/"
   xmlns:cc="http://creativecommons.org/ns#"
   xmlns:rdf="http://www.w3.org/1999/02/22-rdf-syntax-ns#"
   xmlns:svg="http://www.w3.org/2000/svg"
   xmlns="http://www.w3.org/2000/svg"
   xmlns:sodipodi="http://sodipodi.sourceforge.net/DTD/sodipodi-0.dtd"
   xmlns:inkscape="http://www.inkscape.org/namespaces/inkscape"
   width="300"
   height="20"
   id="svg2"
   sodipodi:version="0.32"
   inkscape:version="0.46"
   version="1.0"
   sodipodi:docname="h2back.svg"
   inkscape:output_extension="org.inkscape.output.svg.inkscape"
   inkscape:export-filename="/home/ksaito/tmp5/images/h2back.png"
   inkscape:export-xdpi="90"
   inkscape:export-ydpi="90">
  <defs
     id="defs4">
    <inkscape:perspective
       sodipodi:type="inkscape:persp3d"
       inkscape:vp_x="0 : 526.18109 : 1"
       inkscape:vp_y="0 : 1000 : 0"
       inkscape:vp_z="744.09448 : 526.18109 : 1"
       inkscape:persp3d-origin="372.04724 : 350.78739 : 1"
       id="perspective10" />
  </defs>
  <sodipodi:namedview
     id="base"
     pagecolor="#ffffff"
     bordercolor="#666666"
     borderopacity="1.0"
     gridtolerance="10000"
     guidetolerance="10"
     objecttolerance="10"
     inkscape:pageopacity="0.0"
     inkscape:pageshadow="2"
     inkscape:zoom="1.9033873"
     inkscape:cx="45.96603"
     inkscape:cy="-72.380881"
     inkscape:document-units="px"
     inkscape:current-layer="layer1"
     showgrid="true"
     inkscape:window-width="1279"
     inkscape:window-height="952"
     inkscape:window-x="1"
     inkscape:window-y="46"
     borderlayer="true"
     inkscape:object-nodes="true">
    <inkscape:grid
       type="xygrid"
       id="grid3162"
       visible="true"
       enabled="true" />
  </sodipodi:namedview>
  <metadata
     id="metadata7">
    <rdf:RDF>
      <cc:Work
         rdf:about="">
        <dc:format>image/svg+xml</dc:format>
        <dc:type
           rdf:resource="http://purl.org/dc/dcmitype/StillImage" />
      </cc:Work>
    </rdf:RDF>
  </metadata>
  <g
     inkscape:label="Layer 1"
     inkscape:groupmode="layer"
     id="layer1">
    <rect
       style="opacity:1;fill:#0000ff;fill-opacity:1;stroke:#000000;stroke-width:1;stroke-linejoin:round;stroke-miterlimit:4;stroke-dasharray:none;stroke-dashoffset:0;stroke-opacity:1"
       id="rect3214"
       width="340"
       height="55"
       x="-15"
       y="60" />
    <path
       sodipodi:type="arc"
       style="opacity:1;fill:#ebd9a2;fill-opacity:1;stroke:#f7c147;stroke-width:1;stroke-linejoin:round;stroke-miterlimit:4;stroke-dasharray:none;stroke-dashoffset:0;stroke-opacity:1"
       id="path3936"
       sodipodi:cx="10"
       sodipodi:cy="10"
       sodipodi:rx="10"
       sodipodi:ry="10"
       d="M 20,10 A 10,10 0 1 1 0,10 A 10,10 0 1 1 20,10 z"
       transform="translate(-10,10)" />
    <path
       sodipodi:type="arc"
       style="opacity:0.94999999999999996;fill:#ebd9a2;fill-opacity:1;stroke:#f7c147;stroke-width:1;stroke-linejoin:round;stroke-miterlimit:4;stroke-dasharray:none;stroke-dashoffset:0;stroke-opacity:1"
       id="path3938"
       sodipodi:cx="10"
       sodipodi:cy="10"
       sodipodi:rx="10"
       sodipodi:ry="10"
       d="M 20,10 A 10,10 0 1 1 0,10 A 10,10 0 1 1 20,10 z"
       transform="translate(5,10)" />
    <path
       sodipodi:type="arc"
       style="opacity:0.90000000000000002;fill:#ebd9a2;fill-opacity:1;stroke:#f7c147;stroke-width:1;stroke-linejoin:round;stroke-miterlimit:4;stroke-dasharray:none;stroke-dashoffset:0;stroke-opacity:1"
       id="path3940"
       sodipodi:cx="10"
       sodipodi:cy="10"
       sodipodi:rx="10"
       sodipodi:ry="10"
       d="M 20,10 A 10,10 0 1 1 0,10 A 10,10 0 1 1 20,10 z"
       transform="translate(20,10)" />
    <path
       sodipodi:type="arc"
       style="opacity:0.84999999999999998;fill:#ebd9a2;fill-opacity:1;stroke:#f7c147;stroke-width:1;stroke-linejoin:round;stroke-miterlimit:4;stroke-dasharray:none;stroke-dashoffset:0;stroke-opacity:1"
       id="path3942"
       sodipodi:cx="10"
       sodipodi:cy="10"
       sodipodi:rx="10"
       sodipodi:ry="10"
       d="M 20,10 A 10,10 0 1 1 0,10 A 10,10 0 1 1 20,10 z"
       transform="translate(35,10)" />
    <path
       sodipodi:type="arc"
       style="opacity:0.80000000000000004;fill:#ebd9a2;fill-opacity:1;stroke:#f7c147;stroke-width:1;stroke-linejoin:round;stroke-miterlimit:4;stroke-dasharray:none;stroke-dashoffset:0;stroke-opacity:1"
       id="path3944"
       sodipodi:cx="10"
       sodipodi:cy="10"
       sodipodi:rx="10"
       sodipodi:ry="10"
       d="M 20,10 A 10,10 0 1 1 0,10 A 10,10 0 1 1 20,10 z"
       transform="translate(50,10)" />
    <path
       sodipodi:type="arc"
       style="opacity:0.75000000000000000;fill:#ebd9a2;fill-opacity:1;stroke:#f7c147;stroke-width:1;stroke-linejoin:round;stroke-miterlimit:4;stroke-dasharray:none;stroke-dashoffset:0;stroke-opacity:1"
       id="path3946"
       sodipodi:cx="10"
       sodipodi:cy="10"
       sodipodi:rx="10"
       sodipodi:ry="10"
       d="M 20,10 A 10,10 0 1 1 0,10 A 10,10 0 1 1 20,10 z"
       transform="translate(65,10)" />
    <path
       sodipodi:type="arc"
       style="opacity:0.69999999999999996;fill:#ebd9a2;fill-opacity:1;stroke:#f7c147;stroke-width:1;stroke-linejoin:round;stroke-miterlimit:4;stroke-dasharray:none;stroke-dashoffset:0;stroke-opacity:1"
       id="path3948"
       sodipodi:cx="10"
       sodipodi:cy="10"
       sodipodi:rx="10"
       sodipodi:ry="10"
       d="M 20,10 A 10,10 0 1 1 0,10 A 10,10 0 1 1 20,10 z"
       transform="translate(80,10)" />
    <path
       sodipodi:type="arc"
       style="opacity:0.65000000000000002;fill:#ebd9a2;fill-opacity:1;stroke:#f7c147;stroke-width:1;stroke-linejoin:round;stroke-miterlimit:4;stroke-dasharray:none;stroke-dashoffset:0;stroke-opacity:1"
       id="path3950"
       sodipodi:cx="10"
       sodipodi:cy="10"
       sodipodi:rx="10"
       sodipodi:ry="10"
       d="M 20,10 A 10,10 0 1 1 0,10 A 10,10 0 1 1 20,10 z"
       transform="translate(95,10)" />
    <path
       sodipodi:type="arc"
       style="opacity:0.59999999999999998;fill:#ebd9a2;fill-opacity:1;stroke:#f7c147;stroke-width:1;stroke-linejoin:round;stroke-miterlimit:4;stroke-dasharray:none;stroke-dashoffset:0;stroke-opacity:1"
       id="path3952"
       sodipodi:cx="10"
       sodipodi:cy="10"
       sodipodi:rx="10"
       sodipodi:ry="10"
       d="M 20,10 A 10,10 0 1 1 0,10 A 10,10 0 1 1 20,10 z"
       transform="translate(110,10)" />
    <path
       sodipodi:type="arc"
       style="opacity:0.55000000000000004;fill:#ebd9a2;fill-opacity:1;stroke:#f7c147;stroke-width:1;stroke-linejoin:round;stroke-miterlimit:4;stroke-dasharray:none;stroke-dashoffset:0;stroke-opacity:1"
       id="path3954"
       sodipodi:cx="10"
       sodipodi:cy="10"
       sodipodi:rx="10"
       sodipodi:ry="10"
       d="M 20,10 A 10,10 0 1 1 0,10 A 10,10 0 1 1 20,10 z"
       transform="translate(125,10)" />
    <path
       sodipodi:type="arc"
       style="opacity:0.50000000000000000;fill:#ebd9a2;fill-opacity:1;stroke:#f7c147;stroke-width:1;stroke-linejoin:round;stroke-miterlimit:4;stroke-dasharray:none;stroke-dashoffset:0;stroke-opacity:1"
       id="path3956"
       sodipodi:cx="10"
       sodipodi:cy="10"
       sodipodi:rx="10"
       sodipodi:ry="10"
       d="M 20,10 A 10,10 0 1 1 0,10 A 10,10 0 1 1 20,10 z"
       transform="translate(140,10)" />
    <path
       sodipodi:type="arc"
       style="opacity:0.45000000000000001;fill:#ebd9a2;fill-opacity:1;stroke:#f7c147;stroke-width:1;stroke-linejoin:round;stroke-miterlimit:4;stroke-dasharray:none;stroke-dashoffset:0;stroke-opacity:1"
       id="path3958"
       sodipodi:cx="10"
       sodipodi:cy="10"
       sodipodi:rx="10"
       sodipodi:ry="10"
       d="M 20,10 A 10,10 0 1 1 0,10 A 10,10 0 1 1 20,10 z"
       transform="translate(155.00001,10)" />
    <path
       sodipodi:type="arc"
       style="opacity:0.40000000000000002;fill:#ebd9a2;fill-opacity:1;stroke:#f7c147;stroke-width:1;stroke-linejoin:round;stroke-miterlimit:4;stroke-dasharray:none;stroke-dashoffset:0;stroke-opacity:1"
       id="path3960"
       sodipodi:cx="10"
       sodipodi:cy="10"
       sodipodi:rx="10"
       sodipodi:ry="10"
       d="M 20,10 A 10,10 0 1 1 0,10 A 10,10 0 1 1 20,10 z"
       transform="translate(170.00001,10)" />
    <path
       sodipodi:type="arc"
       style="opacity:0.34999999999999998;fill:#ebd9a2;fill-opacity:1;stroke:#f7c147;stroke-width:1;stroke-linejoin:round;stroke-miterlimit:4;stroke-dasharray:none;stroke-dashoffset:0;stroke-opacity:1"
       id="path3962"
       sodipodi:cx="10"
       sodipodi:cy="10"
       sodipodi:rx="10"
       sodipodi:ry="10"
       d="M 20,10 A 10,10 0 1 1 0,10 A 10,10 0 1 1 20,10 z"
       transform="translate(185.00001,10)" />
    <path
       sodipodi:type="arc"
       style="opacity:0.29999999999999999;fill:#ebd9a2;fill-opacity:1;stroke:#f7c147;stroke-width:1;stroke-linejoin:round;stroke-miterlimit:4;stroke-dasharray:none;stroke-dashoffset:0;stroke-opacity:1"
       id="path3964"
       sodipodi:cx="10"
       sodipodi:cy="10"
       sodipodi:rx="10"
       sodipodi:ry="10"
       d="M 20,10 A 10,10 0 1 1 0,10 A 10,10 0 1 1 20,10 z"
       transform="translate(200.00001,10)" />
    <path
       sodipodi:type="arc"
       style="opacity:0.25000000000000000;fill:#ebd9a2;fill-opacity:1;stroke:#f7c147;stroke-width:1;stroke-linejoin:round;stroke-miterlimit:4;stroke-dasharray:none;stroke-dashoffset:0;stroke-opacity:1"
       id="path3966"
       sodipodi:cx="10"
       sodipodi:cy="10"
       sodipodi:rx="10"
       sodipodi:ry="10"
       d="M 20,10 A 10,10 0 1 1 0,10 A 10,10 0 1 1 20,10 z"
       transform="translate(215.00001,10)" />
    <path
       sodipodi:type="arc"
       style="opacity:0.20000000000000001;fill:#ebd9a2;fill-opacity:1;stroke:#f7c147;stroke-width:1;stroke-linejoin:round;stroke-miterlimit:4;stroke-dasharray:none;stroke-dashoffset:0;stroke-opacity:1"
       id="path3968"
       sodipodi:cx="10"
       sodipodi:cy="10"
       sodipodi:rx="10"
       sodipodi:ry="10"
       d="M 20,10 A 10,10 0 1 1 0,10 A 10,10 0 1 1 20,10 z"
       transform="translate(230.00001,10)"
       inkscape:transform-center-x="13.09238" />
    <path
       sodipodi:type="arc"
       style="opacity:0.14999999999999999;fill:#ebd9a2;fill-opacity:1;stroke:#f7c147;stroke-width:1;stroke-linejoin:round;stroke-miterlimit:4;stroke-dasharray:none;stroke-dashoffset:0;stroke-opacity:1"
       id="path3970"
       sodipodi:cx="10"
       sodipodi:cy="10"
       sodipodi:rx="10"
       sodipodi:ry="10"
       d="M 20,10 A 10,10 0 1 1 0,10 A 10,10 0 1 1 20,10 z"
       transform="translate(245.00001,10)"
       inkscape:transform-center-x="13.09238" />
    <path
       sodipodi:type="arc"
       style="opacity:0.10000000000000001;fill:#ebd9a2;fill-opacity:1;stroke:#f7c147;stroke-width:1;stroke-linejoin:round;stroke-miterlimit:4;stroke-dasharray:none;stroke-dashoffset:0;stroke-opacity:1"
       id="path3972"
       sodipodi:cx="10"
       sodipodi:cy="10"
       sodipodi:rx="10"
       sodipodi:ry="10"
       d="M 20,10 A 10,10 0 1 1 0,10 A 10,10 0 1 1 20,10 z"
       transform="translate(260,10)"
       inkscape:transform-center-x="13.09238" />
    <path
       sodipodi:type="arc"
       style="opacity:0.05000000000000000;fill:#ebd9a2;fill-opacity:1;stroke:#f7c147;stroke-width:1;stroke-linejoin:round;stroke-miterlimit:4;stroke-dasharray:none;stroke-dashoffset:0;stroke-opacity:1"
       id="path3974"
       sodipodi:cx="10"
       sodipodi:cy="10"
       sodipodi:rx="10"
       sodipodi:ry="10"
       d="M 20,10 A 10,10 0 1 1 0,10 A 10,10 0 1 1 20,10 z"
       transform="translate(275,10)"
       inkscape:transform-center-x="13.09238" />
    <path
       sodipodi:type="arc"
       style="opacity:0;fill:#ebd9a2;fill-opacity:1;stroke:#f7c147;stroke-width:1;stroke-linejoin:round;stroke-miterlimit:4;stroke-dasharray:none;stroke-dashoffset:0;stroke-opacity:1"
       id="path3976"
       sodipodi:cx="10"
       sodipodi:cy="10"
       sodipodi:rx="10"
       sodipodi:ry="10"
       d="M 20,10 A 10,10 0 1 1 0,10 A 10,10 0 1 1 20,10 z"
       transform="translate(290,10)"
       inkscape:transform-center-x="13.09238" />
    <path
       sodipodi:type="arc"
       style="opacity:1;fill:#ebd9a2;fill-opacity:1;stroke:#f7c147;stroke-width:1;stroke-linejoin:round;stroke-miterlimit:4;stroke-dasharray:none;stroke-dashoffset:0;stroke-opacity:1"
       id="path3323"
       sodipodi:cx="10"
       sodipodi:cy="10"
       sodipodi:rx="10"
       sodipodi:ry="10"
       d="M 20,10 A 10,10 0 1 1 0,10 A 10,10 0 1 1 20,10 z"
       transform="translate(-10,0)" />
    <path
       sodipodi:type="arc"
       style="opacity:0.94999999999999996;fill:#ebd9a2;fill-opacity:1;stroke:#f7c147;stroke-width:1;stroke-linejoin:round;stroke-miterlimit:4;stroke-dasharray:none;stroke-dashoffset:0;stroke-opacity:1"
       id="path3834"
       sodipodi:cx="10"
       sodipodi:cy="10"
       sodipodi:rx="10"
       sodipodi:ry="10"
       d="M 20,10 A 10,10 0 1 1 0,10 A 10,10 0 1 1 20,10 z"
       transform="translate(5,0)" />
    <path
       sodipodi:type="arc"
       style="opacity:0.90000000000000002;fill:#ebd9a2;fill-opacity:1;stroke:#f7c147;stroke-width:1;stroke-linejoin:round;stroke-miterlimit:4;stroke-dasharray:none;stroke-dashoffset:0;stroke-opacity:1"
       id="path3836"
       sodipodi:cx="10"
       sodipodi:cy="10"
       sodipodi:rx="10"
       sodipodi:ry="10"
       d="M 20,10 A 10,10 0 1 1 0,10 A 10,10 0 1 1 20,10 z"
       transform="translate(20,0)" />
    <path
       sodipodi:type="arc"
       style="opacity:0.84999999999999998;fill:#ebd9a2;fill-opacity:1;stroke:#f7c147;stroke-width:1;stroke-linejoin:round;stroke-miterlimit:4;stroke-dasharray:none;stroke-dashoffset:0;stroke-opacity:1"
       id="path3838"
       sodipodi:cx="10"
       sodipodi:cy="10"
       sodipodi:rx="10"
       sodipodi:ry="10"
       d="M 20,10 A 10,10 0 1 1 0,10 A 10,10 0 1 1 20,10 z"
       transform="translate(35,0)" />
    <path
       sodipodi:type="arc"
       style="opacity:0.80000000000000004;fill:#ebd9a2;fill-opacity:1;stroke:#f7c147;stroke-width:1;stroke-linejoin:round;stroke-miterlimit:4;stroke-dasharray:none;stroke-dashoffset:0;stroke-opacity:1"
       id="path3840"
       sodipodi:cx="10"
       sodipodi:cy="10"
       sodipodi:rx="10"
       sodipodi:ry="10"
       d="M 20,10 A 10,10 0 1 1 0,10 A 10,10 0 1 1 20,10 z"
       transform="translate(50,0)" />
    <path
       sodipodi:type="arc"
       style="opacity:0.75000000000000000;fill:#ebd9a2;fill-opacity:1;stroke:#f7c147;stroke-width:1;stroke-linejoin:round;stroke-miterlimit:4;stroke-dasharray:none;stroke-dashoffset:0;stroke-opacity:1"
       id="path3842"
       sodipodi:cx="10"
       sodipodi:cy="10"
       sodipodi:rx="10"
       sodipodi:ry="10"
       d="M 20,10 A 10,10 0 1 1 0,10 A 10,10 0 1 1 20,10 z"
       transform="translate(65,0)" />
    <path
       sodipodi:type="arc"
       style="opacity:0.69999999999999996;fill:#ebd9a2;fill-opacity:1;stroke:#f7c147;stroke-width:1;stroke-linejoin:round;stroke-miterlimit:4;stroke-dasharray:none;stroke-dashoffset:0;stroke-opacity:1"
       id="path3844"
       sodipodi:cx="10"
       sodipodi:cy="10"
       sodipodi:rx="10"
       sodipodi:ry="10"
       d="M 20,10 A 10,10 0 1 1 0,10 A 10,10 0 1 1 20,10 z"
       transform="translate(80,0)" />
    <path
       sodipodi:type="arc"
       style="opacity:0.65000000000000002;fill:#ebd9a2;fill-opacity:1;stroke:#f7c147;stroke-width:1;stroke-linejoin:round;stroke-miterlimit:4;stroke-dasharray:none;stroke-dashoffset:0;stroke-opacity:1"
       id="path3846"
       sodipodi:cx="10"
       sodipodi:cy="10"
       sodipodi:rx="10"
       sodipodi:ry="10"
       d="M 20,10 A 10,10 0 1 1 0,10 A 10,10 0 1 1 20,10 z"
       transform="translate(95,0)" />
    <path
       sodipodi:type="arc"
       style="opacity:0.59999999999999998;fill:#ebd9a2;fill-opacity:1;stroke:#f7c147;stroke-width:1;stroke-linejoin:round;stroke-miterlimit:4;stroke-dasharray:none;stroke-dashoffset:0;stroke-opacity:1"
       id="path3848"
       sodipodi:cx="10"
       sodipodi:cy="10"
       sodipodi:rx="10"
       sodipodi:ry="10"
       d="M 20,10 A 10,10 0 1 1 0,10 A 10,10 0 1 1 20,10 z"
       transform="translate(110,0)" />
    <path
       sodipodi:type="arc"
       style="opacity:0.55000000000000004;fill:#ebd9a2;fill-opacity:1;stroke:#f7c147;stroke-width:1;stroke-linejoin:round;stroke-miterlimit:4;stroke-dasharray:none;stroke-dashoffset:0;stroke-opacity:1"
       id="path3850"
       sodipodi:cx="10"
       sodipodi:cy="10"
       sodipodi:rx="10"
       sodipodi:ry="10"
       d="M 20,10 A 10,10 0 1 1 0,10 A 10,10 0 1 1 20,10 z"
       transform="translate(125,0)" />
    <path
       sodipodi:type="arc"
       style="opacity:0.50000000000000000;fill:#ebd9a2;fill-opacity:1;stroke:#f7c147;stroke-width:1;stroke-linejoin:round;stroke-miterlimit:4;stroke-dasharray:none;stroke-dashoffset:0;stroke-opacity:1"
       id="path3852"
       sodipodi:cx="10"
       sodipodi:cy="10"
       sodipodi:rx="10"
       sodipodi:ry="10"
       d="M 20,10 A 10,10 0 1 1 0,10 A 10,10 0 1 1 20,10 z"
       transform="translate(140,0)" />
    <path
       sodipodi:type="arc"
       style="opacity:0.45000000000000001;fill:#ebd9a2;fill-opacity:1;stroke:#f7c147;stroke-width:1;stroke-linejoin:round;stroke-miterlimit:4;stroke-dasharray:none;stroke-dashoffset:0;stroke-opacity:1"
       id="path3854"
       sodipodi:cx="10"
       sodipodi:cy="10"
       sodipodi:rx="10"
       sodipodi:ry="10"
       d="M 20,10 A 10,10 0 1 1 0,10 A 10,10 0 1 1 20,10 z"
       transform="translate(155,0)" />
    <path
       sodipodi:type="arc"
       style="opacity:0.40000000000000002;fill:#ebd9a2;fill-opacity:1;stroke:#f7c147;stroke-width:1;stroke-linejoin:round;stroke-miterlimit:4;stroke-dasharray:none;stroke-dashoffset:0;stroke-opacity:1"
       id="path3856"
       sodipodi:cx="10"
       sodipodi:cy="10"
       sodipodi:rx="10"
       sodipodi:ry="10"
       d="M 20,10 A 10,10 0 1 1 0,10 A 10,10 0 1 1 20,10 z"
       transform="translate(170,0)" />
    <path
       sodipodi:type="arc"
       style="opacity:0.34999999999999998;fill:#ebd9a2;fill-opacity:1;stroke:#f7c147;stroke-width:1;stroke-linejoin:round;stroke-miterlimit:4;stroke-dasharray:none;stroke-dashoffset:0;stroke-opacity:1"
       id="path3858"
       sodipodi:cx="10"
       sodipodi:cy="10"
       sodipodi:rx="10"
       sodipodi:ry="10"
       d="M 20,10 A 10,10 0 1 1 0,10 A 10,10 0 1 1 20,10 z"
       transform="translate(185,0)" />
    <path
       sodipodi:type="arc"
       style="opacity:0.29999999999999999;fill:#ebd9a2;fill-opacity:1;stroke:#f7c147;stroke-width:1;stroke-linejoin:round;stroke-miterlimit:4;stroke-dasharray:none;stroke-dashoffset:0;stroke-opacity:1"
       id="path3860"
       sodipodi:cx="10"
       sodipodi:cy="10"
       sodipodi:rx="10"
       sodipodi:ry="10"
       d="M 20,10 A 10,10 0 1 1 0,10 A 10,10 0 1 1 20,10 z"
       transform="translate(200,0)" />
    <path
       sodipodi:type="arc"
       style="opacity:0.25000000000000000;fill:#ebd9a2;fill-opacity:1;stroke:#f7c147;stroke-width:1;stroke-linejoin:round;stroke-miterlimit:4;stroke-dasharray:none;stroke-dashoffset:0;stroke-opacity:1"
       id="path3862"
       sodipodi:cx="10"
       sodipodi:cy="10"
       sodipodi:rx="10"
       sodipodi:ry="10"
       d="M 20,10 A 10,10 0 1 1 0,10 A 10,10 0 1 1 20,10 z"
       transform="translate(215,0)" />
    <path
       sodipodi:type="arc"
       style="opacity:0.20000000000000001;fill:#ebd9a2;fill-opacity:1;stroke:#f7c147;stroke-width:1;stroke-linejoin:round;stroke-miterlimit:4;stroke-dasharray:none;stroke-dashoffset:0;stroke-opacity:1"
       id="path3864"
       sodipodi:cx="10"
       sodipodi:cy="10"
       sodipodi:rx="10"
       sodipodi:ry="10"
       d="M 20,10 A 10,10 0 1 1 0,10 A 10,10 0 1 1 20,10 z"
       transform="translate(230,0)"
       inkscape:transform-center-x="13.09238" />
    <path
       sodipodi:type="arc"
       style="opacity:0.14999999999999999;fill:#ebd9a2;fill-opacity:1;stroke:#f7c147;stroke-width:1;stroke-linejoin:round;stroke-miterlimit:4;stroke-dasharray:none;stroke-dashoffset:0;stroke-opacity:1"
       id="path3866"
       sodipodi:cx="10"
       sodipodi:cy="10"
       sodipodi:rx="10"
       sodipodi:ry="10"
       d="M 20,10 A 10,10 0 1 1 0,10 A 10,10 0 1 1 20,10 z"
       transform="translate(245,0)"
       inkscape:transform-center-x="13.09238" />
    <path
       sodipodi:type="arc"
       style="opacity:0.10000000000000001;fill:#ebd9a2;fill-opacity:1;stroke:#f7c147;stroke-width:1;stroke-linejoin:round;stroke-miterlimit:4;stroke-dasharray:none;stroke-dashoffset:0;stroke-opacity:1"
       id="path3868"
       sodipodi:cx="10"
       sodipodi:cy="10"
       sodipodi:rx="10"
       sodipodi:ry="10"
       d="M 20,10 A 10,10 0 1 1 0,10 A 10,10 0 1 1 20,10 z"
       transform="translate(260,0)"
       inkscape:transform-center-x="13.09238" />
    <path
       sodipodi:type="arc"
       style="opacity:0.05000000000000000;fill:#ebd9a2;fill-opacity:1;stroke:#f7c147;stroke-width:1;stroke-linejoin:round;stroke-miterlimit:4;stroke-dasharray:none;stroke-dashoffset:0;stroke-opacity:1"
       id="path3870"
       sodipodi:cx="10"
       sodipodi:cy="10"
       sodipodi:rx="10"
       sodipodi:ry="10"
       d="M 20,10 A 10,10 0 1 1 0,10 A 10,10 0 1 1 20,10 z"
       transform="translate(275,0)"
       inkscape:transform-center-x="13.09238" />
    <path
       sodipodi:type="arc"
       style="opacity:0;fill:#ebd9a2;fill-opacity:1;stroke:#f7c147;stroke-width:1;stroke-linejoin:round;stroke-miterlimit:4;stroke-dasharray:none;stroke-dashoffset:0;stroke-opacity:1"
       id="path3872"
       sodipodi:cx="10"
       sodipodi:cy="10"
       sodipodi:rx="10"
       sodipodi:ry="10"
       d="M 20,10 A 10,10 0 1 1 0,10 A 10,10 0 1 1 20,10 z"
       transform="translate(290,0)"
       inkscape:transform-center-x="13.09238" />
    <path
       sodipodi:type="arc"
       style="opacity:1;fill:#ebd9a2;fill-opacity:1;stroke:#f7c147;stroke-width:1;stroke-linejoin:round;stroke-miterlimit:4;stroke-dasharray:none;stroke-dashoffset:0;stroke-opacity:1"
       id="path3894"
       sodipodi:cx="10"
       sodipodi:cy="10"
       sodipodi:rx="10"
       sodipodi:ry="10"
       d="M 20,10 A 10,10 0 1 1 0,10 A 10,10 0 1 1 20,10 z"
       transform="translate(-10.000004,-10)" />
    <path
       sodipodi:type="arc"
       style="opacity:0.94999999999999996;fill:#ebd9a2;fill-opacity:1;stroke:#f7c147;stroke-width:1;stroke-linejoin:round;stroke-miterlimit:4;stroke-dasharray:none;stroke-dashoffset:0;stroke-opacity:1"
       id="path3896"
       sodipodi:cx="10"
       sodipodi:cy="10"
       sodipodi:rx="10"
       sodipodi:ry="10"
       d="M 20,10 A 10,10 0 1 1 0,10 A 10,10 0 1 1 20,10 z"
       transform="translate(4.999996,-10)" />
    <path
       sodipodi:type="arc"
       style="opacity:0.90000000000000002;fill:#ebd9a2;fill-opacity:1;stroke:#f7c147;stroke-width:1;stroke-linejoin:round;stroke-miterlimit:4;stroke-dasharray:none;stroke-dashoffset:0;stroke-opacity:1"
       id="path3898"
       sodipodi:cx="10"
       sodipodi:cy="10"
       sodipodi:rx="10"
       sodipodi:ry="10"
       d="M 20,10 A 10,10 0 1 1 0,10 A 10,10 0 1 1 20,10 z"
       transform="translate(19.999996,-10)" />
    <path
       sodipodi:type="arc"
       style="opacity:0.84999999999999998;fill:#ebd9a2;fill-opacity:1;stroke:#f7c147;stroke-width:1;stroke-linejoin:round;stroke-miterlimit:4;stroke-dasharray:none;stroke-dashoffset:0;stroke-opacity:1"
       id="path3900"
       sodipodi:cx="10"
       sodipodi:cy="10"
       sodipodi:rx="10"
       sodipodi:ry="10"
       d="M 20,10 A 10,10 0 1 1 0,10 A 10,10 0 1 1 20,10 z"
       transform="translate(34.999996,-10)" />
    <path
       sodipodi:type="arc"
       style="opacity:0.80000000000000004;fill:#ebd9a2;fill-opacity:1;stroke:#f7c147;stroke-width:1;stroke-linejoin:round;stroke-miterlimit:4;stroke-dasharray:none;stroke-dashoffset:0;stroke-opacity:1"
       id="path3902"
       sodipodi:cx="10"
       sodipodi:cy="10"
       sodipodi:rx="10"
       sodipodi:ry="10"
       d="M 20,10 A 10,10 0 1 1 0,10 A 10,10 0 1 1 20,10 z"
       transform="translate(49.999996,-10)" />
    <path
       sodipodi:type="arc"
       style="opacity:0.75000000000000000;fill:#ebd9a2;fill-opacity:1;stroke:#f7c147;stroke-width:1;stroke-linejoin:round;stroke-miterlimit:4;stroke-dasharray:none;stroke-dashoffset:0;stroke-opacity:1"
       id="path3904"
       sodipodi:cx="10"
       sodipodi:cy="10"
       sodipodi:rx="10"
       sodipodi:ry="10"
       d="M 20,10 A 10,10 0 1 1 0,10 A 10,10 0 1 1 20,10 z"
       transform="translate(64.999996,-10)" />
    <path
       sodipodi:type="arc"
       style="opacity:0.69999999999999996;fill:#ebd9a2;fill-opacity:1;stroke:#f7c147;stroke-width:1;stroke-linejoin:round;stroke-miterlimit:4;stroke-dasharray:none;stroke-dashoffset:0;stroke-opacity:1"
       id="path3906"
       sodipodi:cx="10"
       sodipodi:cy="10"
       sodipodi:rx="10"
       sodipodi:ry="10"
       d="M 20,10 A 10,10 0 1 1 0,10 A 10,10 0 1 1 20,10 z"
       transform="translate(79.999996,-10)" />
    <path
       sodipodi:type="arc"
       style="opacity:0.65000000000000002;fill:#ebd9a2;fill-opacity:1;stroke:#f7c147;stroke-width:1;stroke-linejoin:round;stroke-miterlimit:4;stroke-dasharray:none;stroke-dashoffset:0;stroke-opacity:1"
       id="path3908"
       sodipodi:cx="10"
       sodipodi:cy="10"
       sodipodi:rx="10"
       sodipodi:ry="10"
       d="M 20,10 A 10,10 0 1 1 0,10 A 10,10 0 1 1 20,10 z"
       transform="translate(94.999996,-10)" />
    <path
       sodipodi:type="arc"
       style="opacity:0.59999999999999998;fill:#ebd9a2;fill-opacity:1;stroke:#f7c147;stroke-width:1;stroke-linejoin:round;stroke-miterlimit:4;stroke-dasharray:none;stroke-dashoffset:0;stroke-opacity:1"
       id="path3910"
       sodipodi:cx="10"
       sodipodi:cy="10"
       sodipodi:rx="10"
       sodipodi:ry="10"
       d="M 20,10 A 10,10 0 1 1 0,10 A 10,10 0 1 1 20,10 z"
       transform="translate(110,-10)" />
    <path
       sodipodi:type="arc"
       style="opacity:0.55000000000000004;fill:#ebd9a2;fill-opacity:1;stroke:#f7c147;stroke-width:1;stroke-linejoin:round;stroke-miterlimit:4;stroke-dasharray:none;stroke-dashoffset:0;stroke-opacity:1"
       id="path3912"
       sodipodi:cx="10"
       sodipodi:cy="10"
       sodipodi:rx="10"
       sodipodi:ry="10"
       d="M 20,10 A 10,10 0 1 1 0,10 A 10,10 0 1 1 20,10 z"
       transform="translate(125,-10)" />
    <path
       sodipodi:type="arc"
       style="opacity:0.50000000000000000;fill:#ebd9a2;fill-opacity:1;stroke:#f7c147;stroke-width:1;stroke-linejoin:round;stroke-miterlimit:4;stroke-dasharray:none;stroke-dashoffset:0;stroke-opacity:1"
       id="path3914"
       sodipodi:cx="10"
       sodipodi:cy="10"
       sodipodi:rx="10"
       sodipodi:ry="10"
       d="M 20,10 A 10,10 0 1 1 0,10 A 10,10 0 1 1 20,10 z"
       transform="translate(140,-10)" />
    <path
       sodipodi:type="arc"
       style="opacity:0.45000000000000001;fill:#ebd9a2;fill-opacity:1;stroke:#f7c147;stroke-width:1;stroke-linejoin:round;stroke-miterlimit:4;stroke-dasharray:none;stroke-dashoffset:0;stroke-opacity:1"
       id="path3916"
       sodipodi:cx="10"
       sodipodi:cy="10"
       sodipodi:rx="10"
       sodipodi:ry="10"
       d="M 20,10 A 10,10 0 1 1 0,10 A 10,10 0 1 1 20,10 z"
       transform="translate(155,-10)" />
    <path
       sodipodi:type="arc"
       style="opacity:0.40000000000000002;fill:#ebd9a2;fill-opacity:1;stroke:#f7c147;stroke-width:1;stroke-linejoin:round;stroke-miterlimit:4;stroke-dasharray:none;stroke-dashoffset:0;stroke-opacity:1"
       id="path3918"
       sodipodi:cx="10"
       sodipodi:cy="10"
       sodipodi:rx="10"
       sodipodi:ry="10"
       d="M 20,10 A 10,10 0 1 1 0,10 A 10,10 0 1 1 20,10 z"
       transform="translate(170,-10)" />
    <path
       sodipodi:type="arc"
       style="opacity:0.34999999999999998;fill:#ebd9a2;fill-opacity:1;stroke:#f7c147;stroke-width:1;stroke-linejoin:round;stroke-miterlimit:4;stroke-dasharray:none;stroke-dashoffset:0;stroke-opacity:1"
       id="path3920"
       sodipodi:cx="10"
       sodipodi:cy="10"
       sodipodi:rx="10"
       sodipodi:ry="10"
       d="M 20,10 A 10,10 0 1 1 0,10 A 10,10 0 1 1 20,10 z"
       transform="translate(185,-10)" />
    <path
       sodipodi:type="arc"
       style="opacity:0.29999999999999999;fill:#ebd9a2;fill-opacity:1;stroke:#f7c147;stroke-width:1;stroke-linejoin:round;stroke-miterlimit:4;stroke-dasharray:none;stroke-dashoffset:0;stroke-opacity:1"
       id="path3922"
       sodipodi:cx="10"
       sodipodi:cy="10"
       sodipodi:rx="10"
       sodipodi:ry="10"
       d="M 20,10 A 10,10 0 1 1 0,10 A 10,10 0 1 1 20,10 z"
       transform="translate(200,-10)" />
    <path
       sodipodi:type="arc"
       style="opacity:0.25000000000000000;fill:#ebd9a2;fill-opacity:1;stroke:#f7c147;stroke-width:1;stroke-linejoin:round;stroke-miterlimit:4;stroke-dasharray:none;stroke-dashoffset:0;stroke-opacity:1"
       id="path3924"
       sodipodi:cx="10"
       sodipodi:cy="10"
       sodipodi:rx="10"
       sodipodi:ry="10"
       d="M 20,10 A 10,10 0 1 1 0,10 A 10,10 0 1 1 20,10 z"
       transform="translate(215,-10)" />
    <path
       sodipodi:type="arc"
       style="opacity:0.20000000000000001;fill:#ebd9a2;fill-opacity:1;stroke:#f7c147;stroke-width:1;stroke-linejoin:round;stroke-miterlimit:4;stroke-dasharray:none;stroke-dashoffset:0;stroke-opacity:1"
       id="path3926"
       sodipodi:cx="10"
       sodipodi:cy="10"
       sodipodi:rx="10"
       sodipodi:ry="10"
       d="M 20,10 A 10,10 0 1 1 0,10 A 10,10 0 1 1 20,10 z"
       transform="translate(230,-10)"
       inkscape:transform-center-x="13.09238" />
    <path
       sodipodi:type="arc"
       style="opacity:0.14999999999999999;fill:#ebd9a2;fill-opacity:1;stroke:#f7c147;stroke-width:1;stroke-linejoin:round;stroke-miterlimit:4;stroke-dasharray:none;stroke-dashoffset:0;stroke-opacity:1"
       id="path3928"
       sodipodi:cx="10"
       sodipodi:cy="10"
       sodipodi:rx="10"
       sodipodi:ry="10"
       d="M 20,10 A 10,10 0 1 1 0,10 A 10,10 0 1 1 20,10 z"
       transform="translate(245,-10)"
       inkscape:transform-center-x="13.09238" />
    <path
       sodipodi:type="arc"
       style="opacity:0.10000000000000001;fill:#ebd9a2;fill-opacity:1;stroke:#f7c147;stroke-width:1;stroke-linejoin:round;stroke-miterlimit:4;stroke-dasharray:none;stroke-dashoffset:0;stroke-opacity:1"
       id="path3930"
       sodipodi:cx="10"
       sodipodi:cy="10"
       sodipodi:rx="10"
       sodipodi:ry="10"
       d="M 20,10 A 10,10 0 1 1 0,10 A 10,10 0 1 1 20,10 z"
       transform="translate(260,-10)"
       inkscape:transform-center-x="13.09238" />
    <path
       sodipodi:type="arc"
       style="opacity:0.05000000000000000;fill:#ebd9a2;fill-opacity:1;stroke:#f7c147;stroke-width:1;stroke-linejoin:round;stroke-miterlimit:4;stroke-dasharray:none;stroke-dashoffset:0;stroke-opacity:1"
       id="path3932"
       sodipodi:cx="10"
       sodipodi:cy="10"
       sodipodi:rx="10"
       sodipodi:ry="10"
       d="M 20,10 A 10,10 0 1 1 0,10 A 10,10 0 1 1 20,10 z"
       transform="translate(275,-10)"
       inkscape:transform-center-x="13.09238" />
    <path
       sodipodi:type="arc"
       style="opacity:0;fill:#ebd9a2;fill-opacity:1;stroke:#f7c147;stroke-width:1;stroke-linejoin:round;stroke-miterlimit:4;stroke-dasharray:none;stroke-dashoffset:0;stroke-opacity:1"
       id="path3934"
       sodipodi:cx="10"
       sodipodi:cy="10"
       sodipodi:rx="10"
       sodipodi:ry="10"
       d="M 20,10 A 10,10 0 1 1 0,10 A 10,10 0 1 1 20,10 z"
       transform="translate(290,-10)"
       inkscape:transform-center-x="13.09238" />
    <rect
       style="opacity:1;fill:#ff9400;fill-opacity:1;stroke:#f7c147;stroke-width:0.5743618;stroke-linejoin:round;stroke-miterlimit:4;stroke-dasharray:none;stroke-dashoffset:0;stroke-opacity:1"
       id="rect2444"
       width="4.9256387"
       height="20.092306"
       x="0"
       y="0" />
  </g>
</svg>
